solid Default
  facet normal 0.000000e+00 0.000000e+00 -1.000000e+00
    outer loop
      vertex -5.500000e+01 -1.500000e+01 0.000000e+00
      vertex -5.250000e+01 -1.750000e+01 0.000000e+00
      vertex -5.500000e+01 -6.500000e+01 0.000000e+00
    endloop
  endfacet
  facet normal 0.000000e+00 0.000000e+00 -1.000000e+00
    outer loop
      vertex -5.250000e+01 -1.750000e+01 0.000000e+00
      vertex -5.500000e+01 -1.500000e+01 0.000000e+00
      vertex -4.500000e+01 -1.500000e+01 0.000000e+00
    endloop
  endfacet
  facet normal 0.000000e+00 0.000000e+00 -1.000000e+00
    outer loop
      vertex -5.250000e+01 -1.750000e+01 0.000000e+00
      vertex -4.500000e+01 -1.500000e+01 0.000000e+00
      vertex -4.750000e+01 -1.750000e+01 0.000000e+00
    endloop
  endfacet
  facet normal 0.000000e+00 0.000000e+00 -1.000000e+00
    outer loop
      vertex -4.750000e+01 -1.750000e+01 0.000000e+00
      vertex -4.500000e+01 -1.500000e+01 0.000000e+00
      vertex -4.750000e+01 -2.250000e+01 0.000000e+00
    endloop
  endfacet
  facet normal 0.000000e+00 0.000000e+00 -1.000000e+00
    outer loop
      vertex -4.750000e+01 -2.250000e+01 0.000000e+00
      vertex -4.500000e+01 -1.500000e+01 0.000000e+00
      vertex -4.750000e+01 -2.500000e+01 0.000000e+00
    endloop
  endfacet
  facet normal 0.000000e+00 0.000000e+00 -1.000000e+00
    outer loop
      vertex -4.750000e+01 -2.500000e+01 0.000000e+00
      vertex -4.500000e+01 -1.500000e+01 0.000000e+00
      vertex -4.750000e+01 -5.500000e+01 0.000000e+00
    endloop
  endfacet
  facet normal 0.000000e+00 0.000000e+00 -1.000000e+00
    outer loop
      vertex -4.750000e+01 -5.500000e+01 0.000000e+00
      vertex -4.500000e+01 -1.500000e+01 0.000000e+00
      vertex -4.750000e+01 -5.750000e+01 0.000000e+00
    endloop
  endfacet
  facet normal 0.000000e+00 0.000000e+00 -1.000000e+00
    outer loop
      vertex -4.750000e+01 -5.750000e+01 0.000000e+00
      vertex -4.500000e+01 -1.500000e+01 0.000000e+00
      vertex -4.750000e+01 -6.250000e+01 0.000000e+00
    endloop
  endfacet
  facet normal NaN NaN NaN
    outer loop
      vertex -4.500000e+01 -5.500000e+01 0.000000e+00
      vertex -4.500000e+01 -5.750000e+01 0.000000e+00
      vertex -4.500000e+01 -1.500000e+01 0.000000e+00
    endloop
  endfacet
  facet normal 0.000000e+00 0.000000e+00 -1.000000e+00
    outer loop
      vertex -4.500000e+01 -5.750000e+01 0.000000e+00
      vertex -4.500000e+01 -5.500000e+01 0.000000e+00
      vertex -1.500000e+01 -5.750000e+01 0.000000e+00
    endloop
  endfacet
  facet normal 0.000000e+00 0.000000e+00 -1.000000e+00
    outer loop
      vertex -1.500000e+01 -5.750000e+01 0.000000e+00
      vertex -4.500000e+01 -5.500000e+01 0.000000e+00
      vertex -5.000000e+00 -5.500000e+01 0.000000e+00
    endloop
  endfacet
  facet normal 0.000000e+00 0.000000e+00 -1.000000e+00
    outer loop
      vertex -1.500000e+01 -5.750000e+01 0.000000e+00
      vertex -5.000000e+00 -5.500000e+01 0.000000e+00
      vertex -1.250000e+01 -5.750000e+01 0.000000e+00
    endloop
  endfacet
  facet normal 0.000000e+00 0.000000e+00 -1.000000e+00
    outer loop
      vertex -1.500000e+01 -5.750000e+01 0.000000e+00
      vertex -1.250000e+01 -5.750000e+01 0.000000e+00
      vertex -1.500000e+01 -6.250000e+01 0.000000e+00
    endloop
  endfacet
  facet normal 0.000000e+00 0.000000e+00 -1.000000e+00
    outer loop
      vertex -1.250000e+01 -5.750000e+01 0.000000e+00
      vertex -5.000000e+00 -5.500000e+01 0.000000e+00
      vertex -7.500000e+00 -5.750000e+01 0.000000e+00
    endloop
  endfacet
  facet normal 0.000000e+00 0.000000e+00 -1.000000e+00
    outer loop
      vertex -7.500000e+00 -5.750000e+01 0.000000e+00
      vertex -5.000000e+00 -5.500000e+01 0.000000e+00
      vertex -7.500000e+00 -6.250000e+01 0.000000e+00
    endloop
  endfacet
  facet normal 0.000000e+00 0.000000e+00 -1.000000e+00
    outer loop
      vertex -5.500000e+01 -6.500000e+01 0.000000e+00
      vertex -5.250000e+01 -6.250000e+01 0.000000e+00
      vertex -5.000000e+00 -6.500000e+01 0.000000e+00
    endloop
  endfacet
  facet normal 0.000000e+00 0.000000e+00 -1.000000e+00
    outer loop
      vertex -5.250000e+01 -6.250000e+01 0.000000e+00
      vertex -5.500000e+01 -6.500000e+01 0.000000e+00
      vertex -5.250000e+01 -1.750000e+01 0.000000e+00
    endloop
  endfacet
  facet normal NaN NaN NaN
    outer loop
      vertex -5.250000e+01 -6.250000e+01 0.000000e+00
      vertex -5.250000e+01 -1.750000e+01 0.000000e+00
      vertex -5.250000e+01 -2.250000e+01 0.000000e+00
    endloop
  endfacet
  facet normal NaN NaN NaN
    outer loop
      vertex -5.250000e+01 -6.250000e+01 0.000000e+00
      vertex -5.250000e+01 -2.250000e+01 0.000000e+00
      vertex -5.250000e+01 -2.500000e+01 0.000000e+00
    endloop
  endfacet
  facet normal NaN NaN NaN
    outer loop
      vertex -5.250000e+01 -6.250000e+01 0.000000e+00
      vertex -5.250000e+01 -2.500000e+01 0.000000e+00
      vertex -5.250000e+01 -5.500000e+01 0.000000e+00
    endloop
  endfacet
  facet normal NaN NaN NaN
    outer loop
      vertex -5.250000e+01 -6.250000e+01 0.000000e+00
      vertex -5.250000e+01 -5.500000e+01 0.000000e+00
      vertex -5.250000e+01 -5.750000e+01 0.000000e+00
    endloop
  endfacet
  facet normal 0.000000e+00 0.000000e+00 -1.000000e+00
    outer loop
      vertex -5.000000e+00 -6.500000e+01 0.000000e+00
      vertex -5.250000e+01 -6.250000e+01 0.000000e+00
      vertex -4.750000e+01 -6.250000e+01 0.000000e+00
    endloop
  endfacet
  facet normal 0.000000e+00 0.000000e+00 -1.000000e+00
    outer loop
      vertex -5.000000e+00 -6.500000e+01 0.000000e+00
      vertex -4.750000e+01 -6.250000e+01 0.000000e+00
      vertex -4.500000e+01 -6.250000e+01 0.000000e+00
    endloop
  endfacet
  facet normal 0.000000e+00 0.000000e+00 -1.000000e+00
    outer loop
      vertex -4.500000e+01 -6.250000e+01 0.000000e+00
      vertex -4.750000e+01 -6.250000e+01 0.000000e+00
      vertex -4.500000e+01 -1.500000e+01 0.000000e+00
    endloop
  endfacet
  facet normal NaN NaN NaN
    outer loop
      vertex -4.500000e+01 -6.250000e+01 0.000000e+00
      vertex -4.500000e+01 -1.500000e+01 0.000000e+00
      vertex -4.500000e+01 -5.750000e+01 0.000000e+00
    endloop
  endfacet
  facet normal 0.000000e+00 0.000000e+00 -1.000000e+00
    outer loop
      vertex -5.000000e+00 -6.500000e+01 0.000000e+00
      vertex -4.500000e+01 -6.250000e+01 0.000000e+00
      vertex -1.500000e+01 -6.250000e+01 0.000000e+00
    endloop
  endfacet
  facet normal 0.000000e+00 0.000000e+00 -1.000000e+00
    outer loop
      vertex -5.000000e+00 -6.500000e+01 0.000000e+00
      vertex -1.500000e+01 -6.250000e+01 0.000000e+00
      vertex -1.250000e+01 -6.250000e+01 0.000000e+00
    endloop
  endfacet
  facet normal 0.000000e+00 0.000000e+00 -1.000000e+00
    outer loop
      vertex -1.250000e+01 -6.250000e+01 0.000000e+00
      vertex -1.500000e+01 -6.250000e+01 0.000000e+00
      vertex -1.250000e+01 -5.750000e+01 0.000000e+00
    endloop
  endfacet
  facet normal 0.000000e+00 0.000000e+00 -1.000000e+00
    outer loop
      vertex -5.000000e+00 -6.500000e+01 0.000000e+00
      vertex -1.250000e+01 -6.250000e+01 0.000000e+00
      vertex -7.500000e+00 -6.250000e+01 0.000000e+00
    endloop
  endfacet
  facet normal 0.000000e+00 0.000000e+00 -1.000000e+00
    outer loop
      vertex -5.000000e+00 -6.500000e+01 0.000000e+00
      vertex -7.500000e+00 -6.250000e+01 0.000000e+00
      vertex -5.000000e+00 -5.500000e+01 0.000000e+00
    endloop
  endfacet
  facet normal 0.000000e+00 0.000000e+00 -1.000000e+00
    outer loop
      vertex -4.750000e+01 -5.500000e+01 0.000000e+00
      vertex -5.250000e+01 -5.750000e+01 0.000000e+00
      vertex -5.250000e+01 -5.500000e+01 0.000000e+00
    endloop
  endfacet
  facet normal 0.000000e+00 0.000000e+00 -1.000000e+00
    outer loop
      vertex -5.250000e+01 -5.750000e+01 0.000000e+00
      vertex -4.750000e+01 -5.500000e+01 0.000000e+00
      vertex -4.750000e+01 -5.750000e+01 0.000000e+00
    endloop
  endfacet
  facet normal 0.000000e+00 0.000000e+00 -1.000000e+00
    outer loop
      vertex -4.750000e+01 -2.250000e+01 0.000000e+00
      vertex -5.250000e+01 -2.500000e+01 0.000000e+00
      vertex -5.250000e+01 -2.250000e+01 0.000000e+00
    endloop
  endfacet
  facet normal 0.000000e+00 0.000000e+00 -1.000000e+00
    outer loop
      vertex -5.250000e+01 -2.500000e+01 0.000000e+00
      vertex -4.750000e+01 -2.250000e+01 0.000000e+00
      vertex -4.750000e+01 -2.500000e+01 0.000000e+00
    endloop
  endfacet
  facet normal 0.000000e+00 0.000000e+00 1.000000e+00
    outer loop
      vertex -5.500000e+01 -6.500000e+01 5.000000e+00
      vertex -5.250000e+01 -6.250000e+01 5.000000e+00
      vertex -5.500000e+01 -1.500000e+01 5.000000e+00
    endloop
  endfacet
  facet normal 0.000000e+00 0.000000e+00 1.000000e+00
    outer loop
      vertex -5.250000e+01 -6.250000e+01 5.000000e+00
      vertex -5.500000e+01 -6.500000e+01 5.000000e+00
      vertex -5.000000e+00 -6.500000e+01 5.000000e+00
    endloop
  endfacet
  facet normal 0.000000e+00 0.000000e+00 1.000000e+00
    outer loop
      vertex -5.250000e+01 -6.250000e+01 5.000000e+00
      vertex -5.000000e+00 -6.500000e+01 5.000000e+00
      vertex -4.750000e+01 -6.250000e+01 5.000000e+00
    endloop
  endfacet
  facet normal 0.000000e+00 0.000000e+00 1.000000e+00
    outer loop
      vertex -4.750000e+01 -6.250000e+01 5.000000e+00
      vertex -5.000000e+00 -6.500000e+01 5.000000e+00
      vertex -4.500000e+01 -6.250000e+01 5.000000e+00
    endloop
  endfacet
  facet normal 0.000000e+00 0.000000e+00 1.000000e+00
    outer loop
      vertex -4.750000e+01 -6.250000e+01 5.000000e+00
      vertex -4.500000e+01 -6.250000e+01 5.000000e+00
      vertex -4.750000e+01 -5.750000e+01 5.000000e+00
    endloop
  endfacet
  facet normal 0.000000e+00 0.000000e+00 1.000000e+00
    outer loop
      vertex -4.750000e+01 -5.750000e+01 5.000000e+00
      vertex -4.500000e+01 -6.250000e+01 5.000000e+00
      vertex -4.750000e+01 -5.500000e+01 5.000000e+00
    endloop
  endfacet
  facet normal 0.000000e+00 0.000000e+00 1.000000e+00
    outer loop
      vertex -4.750000e+01 -5.500000e+01 5.000000e+00
      vertex -4.500000e+01 -6.250000e+01 5.000000e+00
      vertex -4.750000e+01 -2.500000e+01 5.000000e+00
    endloop
  endfacet
  facet normal 0.000000e+00 0.000000e+00 1.000000e+00
    outer loop
      vertex -4.750000e+01 -2.500000e+01 5.000000e+00
      vertex -4.500000e+01 -6.250000e+01 5.000000e+00
      vertex -4.750000e+01 -2.250000e+01 5.000000e+00
    endloop
  endfacet
  facet normal 0.000000e+00 0.000000e+00 1.000000e+00
    outer loop
      vertex -4.750000e+01 -2.250000e+01 5.000000e+00
      vertex -4.500000e+01 -6.250000e+01 5.000000e+00
      vertex -4.750000e+01 -1.750000e+01 5.000000e+00
    endloop
  endfacet
  facet normal 0.000000e+00 0.000000e+00 1.000000e+00
    outer loop
      vertex -4.500000e+01 -6.250000e+01 5.000000e+00
      vertex -5.000000e+00 -6.500000e+01 5.000000e+00
      vertex -1.500000e+01 -6.250000e+01 5.000000e+00
    endloop
  endfacet
  facet normal 0.000000e+00 0.000000e+00 1.000000e+00
    outer loop
      vertex -1.500000e+01 -6.250000e+01 5.000000e+00
      vertex -5.000000e+00 -6.500000e+01 5.000000e+00
      vertex -1.250000e+01 -6.250000e+01 5.000000e+00
    endloop
  endfacet
  facet normal 0.000000e+00 0.000000e+00 1.000000e+00
    outer loop
      vertex -1.500000e+01 -6.250000e+01 5.000000e+00
      vertex -1.250000e+01 -6.250000e+01 5.000000e+00
      vertex -1.500000e+01 -5.750000e+01 5.000000e+00
    endloop
  endfacet
  facet normal 0.000000e+00 0.000000e+00 1.000000e+00
    outer loop
      vertex -1.250000e+01 -6.250000e+01 5.000000e+00
      vertex -5.000000e+00 -6.500000e+01 5.000000e+00
      vertex -7.500000e+00 -6.250000e+01 5.000000e+00
    endloop
  endfacet
  facet normal 0.000000e+00 0.000000e+00 1.000000e+00
    outer loop
      vertex -7.500000e+00 -6.250000e+01 5.000000e+00
      vertex -5.000000e+00 -6.500000e+01 5.000000e+00
      vertex -7.500000e+00 -5.750000e+01 5.000000e+00
    endloop
  endfacet
  facet normal 0.000000e+00 0.000000e+00 1.000000e+00
    outer loop
      vertex -5.500000e+01 -1.500000e+01 5.000000e+00
      vertex -5.250000e+01 -1.750000e+01 5.000000e+00
      vertex -4.500000e+01 -1.500000e+01 5.000000e+00
    endloop
  endfacet
  facet normal 0.000000e+00 0.000000e+00 1.000000e+00
    outer loop
      vertex -5.250000e+01 -1.750000e+01 5.000000e+00
      vertex -5.500000e+01 -1.500000e+01 5.000000e+00
      vertex -5.250000e+01 -6.250000e+01 5.000000e+00
    endloop
  endfacet
  facet normal NaN NaN NaN
    outer loop
      vertex -5.250000e+01 -1.750000e+01 5.000000e+00
      vertex -5.250000e+01 -6.250000e+01 5.000000e+00
      vertex -5.250000e+01 -5.750000e+01 5.000000e+00
    endloop
  endfacet
  facet normal NaN NaN NaN
    outer loop
      vertex -5.250000e+01 -1.750000e+01 5.000000e+00
      vertex -5.250000e+01 -5.750000e+01 5.000000e+00
      vertex -5.250000e+01 -5.500000e+01 5.000000e+00
    endloop
  endfacet
  facet normal NaN NaN NaN
    outer loop
      vertex -5.250000e+01 -1.750000e+01 5.000000e+00
      vertex -5.250000e+01 -5.500000e+01 5.000000e+00
      vertex -5.250000e+01 -2.500000e+01 5.000000e+00
    endloop
  endfacet
  facet normal NaN NaN NaN
    outer loop
      vertex -5.250000e+01 -1.750000e+01 5.000000e+00
      vertex -5.250000e+01 -2.500000e+01 5.000000e+00
      vertex -5.250000e+01 -2.250000e+01 5.000000e+00
    endloop
  endfacet
  facet normal 0.000000e+00 0.000000e+00 1.000000e+00
    outer loop
      vertex -4.500000e+01 -1.500000e+01 5.000000e+00
      vertex -5.250000e+01 -1.750000e+01 5.000000e+00
      vertex -4.750000e+01 -1.750000e+01 5.000000e+00
    endloop
  endfacet
  facet normal 0.000000e+00 0.000000e+00 1.000000e+00
    outer loop
      vertex -4.500000e+01 -1.500000e+01 5.000000e+00
      vertex -4.750000e+01 -1.750000e+01 5.000000e+00
      vertex -4.500000e+01 -6.250000e+01 5.000000e+00
    endloop
  endfacet
  facet normal NaN NaN NaN
    outer loop
      vertex -4.500000e+01 -1.500000e+01 5.000000e+00
      vertex -4.500000e+01 -6.250000e+01 5.000000e+00
      vertex -4.500000e+01 -5.750000e+01 5.000000e+00
    endloop
  endfacet
  facet normal NaN NaN NaN
    outer loop
      vertex -4.500000e+01 -1.500000e+01 5.000000e+00
      vertex -4.500000e+01 -5.750000e+01 5.000000e+00
      vertex -4.500000e+01 -5.500000e+01 5.000000e+00
    endloop
  endfacet
  facet normal 0.000000e+00 0.000000e+00 1.000000e+00
    outer loop
      vertex -4.500000e+01 -5.500000e+01 5.000000e+00
      vertex -4.500000e+01 -5.750000e+01 5.000000e+00
      vertex -1.500000e+01 -5.750000e+01 5.000000e+00
    endloop
  endfacet
  facet normal 0.000000e+00 0.000000e+00 1.000000e+00
    outer loop
      vertex -4.500000e+01 -5.500000e+01 5.000000e+00
      vertex -1.500000e+01 -5.750000e+01 5.000000e+00
      vertex -5.000000e+00 -5.500000e+01 5.000000e+00
    endloop
  endfacet
  facet normal 0.000000e+00 0.000000e+00 1.000000e+00
    outer loop
      vertex -5.000000e+00 -5.500000e+01 5.000000e+00
      vertex -1.500000e+01 -5.750000e+01 5.000000e+00
      vertex -1.250000e+01 -5.750000e+01 5.000000e+00
    endloop
  endfacet
  facet normal 0.000000e+00 0.000000e+00 1.000000e+00
    outer loop
      vertex -1.250000e+01 -5.750000e+01 5.000000e+00
      vertex -1.500000e+01 -5.750000e+01 5.000000e+00
      vertex -1.250000e+01 -6.250000e+01 5.000000e+00
    endloop
  endfacet
  facet normal 0.000000e+00 0.000000e+00 1.000000e+00
    outer loop
      vertex -5.000000e+00 -5.500000e+01 5.000000e+00
      vertex -1.250000e+01 -5.750000e+01 5.000000e+00
      vertex -7.500000e+00 -5.750000e+01 5.000000e+00
    endloop
  endfacet
  facet normal 0.000000e+00 0.000000e+00 1.000000e+00
    outer loop
      vertex -5.000000e+00 -5.500000e+01 5.000000e+00
      vertex -7.500000e+00 -5.750000e+01 5.000000e+00
      vertex -5.000000e+00 -6.500000e+01 5.000000e+00
    endloop
  endfacet
  facet normal 0.000000e+00 0.000000e+00 1.000000e+00
    outer loop
      vertex -4.750000e+01 -2.500000e+01 5.000000e+00
      vertex -5.250000e+01 -2.250000e+01 5.000000e+00
      vertex -5.250000e+01 -2.500000e+01 5.000000e+00
    endloop
  endfacet
  facet normal 0.000000e+00 0.000000e+00 1.000000e+00
    outer loop
      vertex -5.250000e+01 -2.250000e+01 5.000000e+00
      vertex -4.750000e+01 -2.500000e+01 5.000000e+00
      vertex -4.750000e+01 -2.250000e+01 5.000000e+00
    endloop
  endfacet
  facet normal 0.000000e+00 0.000000e+00 1.000000e+00
    outer loop
      vertex -4.750000e+01 -5.750000e+01 5.000000e+00
      vertex -5.250000e+01 -5.500000e+01 5.000000e+00
      vertex -5.250000e+01 -5.750000e+01 5.000000e+00
    endloop
  endfacet
  facet normal 0.000000e+00 0.000000e+00 1.000000e+00
    outer loop
      vertex -5.250000e+01 -5.500000e+01 5.000000e+00
      vertex -4.750000e+01 -5.750000e+01 5.000000e+00
      vertex -4.750000e+01 -5.500000e+01 5.000000e+00
    endloop
  endfacet
  facet normal 0.000000e+00 1.000000e+00 0.000000e+00
    outer loop
      vertex -4.500000e+01 -1.500000e+01 0.000000e+00
      vertex -5.500000e+01 -1.500000e+01 0.000000e+00
      vertex -5.500000e+01 -1.500000e+01 5.000000e+00
    endloop
  endfacet
  facet normal 0.000000e+00 1.000000e+00 0.000000e+00
    outer loop
      vertex -4.500000e+01 -1.500000e+01 0.000000e+00
      vertex -5.500000e+01 -1.500000e+01 5.000000e+00
      vertex -4.500000e+01 -1.500000e+01 5.000000e+00
    endloop
  endfacet
  facet normal 1.000000e+00 0.000000e+00 0.000000e+00
    outer loop
      vertex -4.500000e+01 -1.500000e+01 0.000000e+00
      vertex -4.500000e+01 -5.500000e+01 5.000000e+00
      vertex -4.500000e+01 -5.500000e+01 0.000000e+00
    endloop
  endfacet
  facet normal 1.000000e+00 0.000000e+00 0.000000e+00
    outer loop
      vertex -4.500000e+01 -5.500000e+01 5.000000e+00
      vertex -4.500000e+01 -1.500000e+01 0.000000e+00
      vertex -4.500000e+01 -1.500000e+01 5.000000e+00
    endloop
  endfacet
  facet normal 0.000000e+00 1.000000e+00 0.000000e+00
    outer loop
      vertex -4.500000e+01 -5.500000e+01 5.000000e+00
      vertex -5.000000e+00 -5.500000e+01 0.000000e+00
      vertex -4.500000e+01 -5.500000e+01 0.000000e+00
    endloop
  endfacet
  facet normal 0.000000e+00 1.000000e+00 0.000000e+00
    outer loop
      vertex -5.000000e+00 -5.500000e+01 0.000000e+00
      vertex -4.500000e+01 -5.500000e+01 5.000000e+00
      vertex -5.000000e+00 -5.500000e+01 5.000000e+00
    endloop
  endfacet
  facet normal 1.000000e+00 0.000000e+00 0.000000e+00
    outer loop
      vertex -5.000000e+00 -5.500000e+01 0.000000e+00
      vertex -5.000000e+00 -6.500000e+01 5.000000e+00
      vertex -5.000000e+00 -6.500000e+01 0.000000e+00
    endloop
  endfacet
  facet normal 1.000000e+00 0.000000e+00 0.000000e+00
    outer loop
      vertex -5.000000e+00 -6.500000e+01 5.000000e+00
      vertex -5.000000e+00 -5.500000e+01 0.000000e+00
      vertex -5.000000e+00 -5.500000e+01 5.000000e+00
    endloop
  endfacet
  facet normal 0.000000e+00 -1.000000e+00 0.000000e+00
    outer loop
      vertex -5.000000e+00 -6.500000e+01 5.000000e+00
      vertex -5.500000e+01 -6.500000e+01 0.000000e+00
      vertex -5.000000e+00 -6.500000e+01 0.000000e+00
    endloop
  endfacet
  facet normal 0.000000e+00 -1.000000e+00 0.000000e+00
    outer loop
      vertex -5.500000e+01 -6.500000e+01 0.000000e+00
      vertex -5.000000e+00 -6.500000e+01 5.000000e+00
      vertex -5.500000e+01 -6.500000e+01 5.000000e+00
    endloop
  endfacet
  facet normal -1.000000e+00 0.000000e+00 0.000000e+00
    outer loop
      vertex -5.500000e+01 -1.500000e+01 5.000000e+00
      vertex -5.500000e+01 -6.500000e+01 0.000000e+00
      vertex -5.500000e+01 -6.500000e+01 5.000000e+00
    endloop
  endfacet
  facet normal -1.000000e+00 0.000000e+00 0.000000e+00
    outer loop
      vertex -5.500000e+01 -1.500000e+01 5.000000e+00
      vertex -5.500000e+01 -1.500000e+01 0.000000e+00
      vertex -5.500000e+01 -6.500000e+01 0.000000e+00
    endloop
  endfacet
  facet normal 0.000000e+00 -1.000000e+00 0.000000e+00
    outer loop
      vertex -4.750000e+01 -5.750000e+01 5.000000e+00
      vertex -5.250000e+01 -5.750000e+01 0.000000e+00
      vertex -4.750000e+01 -5.750000e+01 0.000000e+00
    endloop
  endfacet
  facet normal 0.000000e+00 -1.000000e+00 0.000000e+00
    outer loop
      vertex -5.250000e+01 -5.750000e+01 0.000000e+00
      vertex -4.750000e+01 -5.750000e+01 5.000000e+00
      vertex -5.250000e+01 -5.750000e+01 5.000000e+00
    endloop
  endfacet
  facet normal 1.000000e+00 0.000000e+00 0.000000e+00
    outer loop
      vertex -5.250000e+01 -5.750000e+01 0.000000e+00
      vertex -5.250000e+01 -6.250000e+01 5.000000e+00
      vertex -5.250000e+01 -6.250000e+01 0.000000e+00
    endloop
  endfacet
  facet normal 1.000000e+00 0.000000e+00 0.000000e+00
    outer loop
      vertex -5.250000e+01 -6.250000e+01 5.000000e+00
      vertex -5.250000e+01 -5.750000e+01 0.000000e+00
      vertex -5.250000e+01 -5.750000e+01 5.000000e+00
    endloop
  endfacet
  facet normal 0.000000e+00 1.000000e+00 0.000000e+00
    outer loop
      vertex -5.250000e+01 -6.250000e+01 5.000000e+00
      vertex -4.750000e+01 -6.250000e+01 0.000000e+00
      vertex -5.250000e+01 -6.250000e+01 0.000000e+00
    endloop
  endfacet
  facet normal 0.000000e+00 1.000000e+00 0.000000e+00
    outer loop
      vertex -4.750000e+01 -6.250000e+01 0.000000e+00
      vertex -5.250000e+01 -6.250000e+01 5.000000e+00
      vertex -4.750000e+01 -6.250000e+01 5.000000e+00
    endloop
  endfacet
  facet normal -1.000000e+00 0.000000e+00 0.000000e+00
    outer loop
      vertex -4.750000e+01 -5.750000e+01 5.000000e+00
      vertex -4.750000e+01 -6.250000e+01 0.000000e+00
      vertex -4.750000e+01 -6.250000e+01 5.000000e+00
    endloop
  endfacet
  facet normal -1.000000e+00 0.000000e+00 0.000000e+00
    outer loop
      vertex -4.750000e+01 -6.250000e+01 0.000000e+00
      vertex -4.750000e+01 -5.750000e+01 5.000000e+00
      vertex -4.750000e+01 -5.750000e+01 0.000000e+00
    endloop
  endfacet
  facet normal 1.000000e+00 0.000000e+00 0.000000e+00
    outer loop
      vertex -4.500000e+01 -5.750000e+01 0.000000e+00
      vertex -4.500000e+01 -6.250000e+01 5.000000e+00
      vertex -4.500000e+01 -6.250000e+01 0.000000e+00
    endloop
  endfacet
  facet normal 1.000000e+00 0.000000e+00 0.000000e+00
    outer loop
      vertex -4.500000e+01 -6.250000e+01 5.000000e+00
      vertex -4.500000e+01 -5.750000e+01 0.000000e+00
      vertex -4.500000e+01 -5.750000e+01 5.000000e+00
    endloop
  endfacet
  facet normal 0.000000e+00 1.000000e+00 0.000000e+00
    outer loop
      vertex -4.500000e+01 -6.250000e+01 5.000000e+00
      vertex -1.500000e+01 -6.250000e+01 0.000000e+00
      vertex -4.500000e+01 -6.250000e+01 0.000000e+00
    endloop
  endfacet
  facet normal 0.000000e+00 1.000000e+00 0.000000e+00
    outer loop
      vertex -1.500000e+01 -6.250000e+01 0.000000e+00
      vertex -4.500000e+01 -6.250000e+01 5.000000e+00
      vertex -1.500000e+01 -6.250000e+01 5.000000e+00
    endloop
  endfacet
  facet normal -1.000000e+00 0.000000e+00 0.000000e+00
    outer loop
      vertex -1.500000e+01 -5.750000e+01 5.000000e+00
      vertex -1.500000e+01 -6.250000e+01 0.000000e+00
      vertex -1.500000e+01 -6.250000e+01 5.000000e+00
    endloop
  endfacet
  facet normal -1.000000e+00 0.000000e+00 0.000000e+00
    outer loop
      vertex -1.500000e+01 -6.250000e+01 0.000000e+00
      vertex -1.500000e+01 -5.750000e+01 5.000000e+00
      vertex -1.500000e+01 -5.750000e+01 0.000000e+00
    endloop
  endfacet
  facet normal 0.000000e+00 -1.000000e+00 0.000000e+00
    outer loop
      vertex -1.500000e+01 -5.750000e+01 5.000000e+00
      vertex -4.500000e+01 -5.750000e+01 0.000000e+00
      vertex -1.500000e+01 -5.750000e+01 0.000000e+00
    endloop
  endfacet
  facet normal 0.000000e+00 -1.000000e+00 0.000000e+00
    outer loop
      vertex -4.500000e+01 -5.750000e+01 0.000000e+00
      vertex -1.500000e+01 -5.750000e+01 5.000000e+00
      vertex -4.500000e+01 -5.750000e+01 5.000000e+00
    endloop
  endfacet
  facet normal -1.000000e+00 0.000000e+00 0.000000e+00
    outer loop
      vertex -7.500000e+00 -5.750000e+01 5.000000e+00
      vertex -7.500000e+00 -6.250000e+01 0.000000e+00
      vertex -7.500000e+00 -6.250000e+01 5.000000e+00
    endloop
  endfacet
  facet normal -1.000000e+00 0.000000e+00 0.000000e+00
    outer loop
      vertex -7.500000e+00 -6.250000e+01 0.000000e+00
      vertex -7.500000e+00 -5.750000e+01 5.000000e+00
      vertex -7.500000e+00 -5.750000e+01 0.000000e+00
    endloop
  endfacet
  facet normal 0.000000e+00 -1.000000e+00 0.000000e+00
    outer loop
      vertex -7.500000e+00 -5.750000e+01 5.000000e+00
      vertex -1.250000e+01 -5.750000e+01 0.000000e+00
      vertex -7.500000e+00 -5.750000e+01 0.000000e+00
    endloop
  endfacet
  facet normal 0.000000e+00 -1.000000e+00 0.000000e+00
    outer loop
      vertex -1.250000e+01 -5.750000e+01 0.000000e+00
      vertex -7.500000e+00 -5.750000e+01 5.000000e+00
      vertex -1.250000e+01 -5.750000e+01 5.000000e+00
    endloop
  endfacet
  facet normal 1.000000e+00 0.000000e+00 0.000000e+00
    outer loop
      vertex -1.250000e+01 -5.750000e+01 0.000000e+00
      vertex -1.250000e+01 -6.250000e+01 5.000000e+00
      vertex -1.250000e+01 -6.250000e+01 0.000000e+00
    endloop
  endfacet
  facet normal 1.000000e+00 0.000000e+00 0.000000e+00
    outer loop
      vertex -1.250000e+01 -6.250000e+01 5.000000e+00
      vertex -1.250000e+01 -5.750000e+01 0.000000e+00
      vertex -1.250000e+01 -5.750000e+01 5.000000e+00
    endloop
  endfacet
  facet normal 0.000000e+00 1.000000e+00 0.000000e+00
    outer loop
      vertex -1.250000e+01 -6.250000e+01 5.000000e+00
      vertex -7.500000e+00 -6.250000e+01 0.000000e+00
      vertex -1.250000e+01 -6.250000e+01 0.000000e+00
    endloop
  endfacet
  facet normal 0.000000e+00 1.000000e+00 0.000000e+00
    outer loop
      vertex -7.500000e+00 -6.250000e+01 0.000000e+00
      vertex -1.250000e+01 -6.250000e+01 5.000000e+00
      vertex -7.500000e+00 -6.250000e+01 5.000000e+00
    endloop
  endfacet
  facet normal 0.000000e+00 1.000000e+00 0.000000e+00
    outer loop
      vertex -5.250000e+01 -5.500000e+01 5.000000e+00
      vertex -4.750000e+01 -5.500000e+01 0.000000e+00
      vertex -5.250000e+01 -5.500000e+01 0.000000e+00
    endloop
  endfacet
  facet normal 0.000000e+00 1.000000e+00 0.000000e+00
    outer loop
      vertex -4.750000e+01 -5.500000e+01 0.000000e+00
      vertex -5.250000e+01 -5.500000e+01 5.000000e+00
      vertex -4.750000e+01 -5.500000e+01 5.000000e+00
    endloop
  endfacet
  facet normal -1.000000e+00 0.000000e+00 0.000000e+00
    outer loop
      vertex -4.750000e+01 -2.500000e+01 5.000000e+00
      vertex -4.750000e+01 -5.500000e+01 0.000000e+00
      vertex -4.750000e+01 -5.500000e+01 5.000000e+00
    endloop
  endfacet
  facet normal -1.000000e+00 0.000000e+00 0.000000e+00
    outer loop
      vertex -4.750000e+01 -5.500000e+01 0.000000e+00
      vertex -4.750000e+01 -2.500000e+01 5.000000e+00
      vertex -4.750000e+01 -2.500000e+01 0.000000e+00
    endloop
  endfacet
  facet normal 0.000000e+00 -1.000000e+00 0.000000e+00
    outer loop
      vertex -4.750000e+01 -2.500000e+01 5.000000e+00
      vertex -5.250000e+01 -2.500000e+01 0.000000e+00
      vertex -4.750000e+01 -2.500000e+01 0.000000e+00
    endloop
  endfacet
  facet normal 0.000000e+00 -1.000000e+00 0.000000e+00
    outer loop
      vertex -5.250000e+01 -2.500000e+01 0.000000e+00
      vertex -4.750000e+01 -2.500000e+01 5.000000e+00
      vertex -5.250000e+01 -2.500000e+01 5.000000e+00
    endloop
  endfacet
  facet normal 1.000000e+00 0.000000e+00 0.000000e+00
    outer loop
      vertex -5.250000e+01 -2.500000e+01 0.000000e+00
      vertex -5.250000e+01 -5.500000e+01 5.000000e+00
      vertex -5.250000e+01 -5.500000e+01 0.000000e+00
    endloop
  endfacet
  facet normal 1.000000e+00 0.000000e+00 0.000000e+00
    outer loop
      vertex -5.250000e+01 -5.500000e+01 5.000000e+00
      vertex -5.250000e+01 -2.500000e+01 0.000000e+00
      vertex -5.250000e+01 -2.500000e+01 5.000000e+00
    endloop
  endfacet
  facet normal 1.000000e+00 0.000000e+00 0.000000e+00
    outer loop
      vertex -5.250000e+01 -1.750000e+01 0.000000e+00
      vertex -5.250000e+01 -2.250000e+01 5.000000e+00
      vertex -5.250000e+01 -2.250000e+01 0.000000e+00
    endloop
  endfacet
  facet normal 1.000000e+00 0.000000e+00 0.000000e+00
    outer loop
      vertex -5.250000e+01 -2.250000e+01 5.000000e+00
      vertex -5.250000e+01 -1.750000e+01 0.000000e+00
      vertex -5.250000e+01 -1.750000e+01 5.000000e+00
    endloop
  endfacet
  facet normal 0.000000e+00 1.000000e+00 0.000000e+00
    outer loop
      vertex -5.250000e+01 -2.250000e+01 5.000000e+00
      vertex -4.750000e+01 -2.250000e+01 0.000000e+00
      vertex -5.250000e+01 -2.250000e+01 0.000000e+00
    endloop
  endfacet
  facet normal 0.000000e+00 1.000000e+00 0.000000e+00
    outer loop
      vertex -4.750000e+01 -2.250000e+01 0.000000e+00
      vertex -5.250000e+01 -2.250000e+01 5.000000e+00
      vertex -4.750000e+01 -2.250000e+01 5.000000e+00
    endloop
  endfacet
  facet normal -1.000000e+00 0.000000e+00 0.000000e+00
    outer loop
      vertex -4.750000e+01 -1.750000e+01 5.000000e+00
      vertex -4.750000e+01 -2.250000e+01 0.000000e+00
      vertex -4.750000e+01 -2.250000e+01 5.000000e+00
    endloop
  endfacet
  facet normal -1.000000e+00 0.000000e+00 0.000000e+00
    outer loop
      vertex -4.750000e+01 -2.250000e+01 0.000000e+00
      vertex -4.750000e+01 -1.750000e+01 5.000000e+00
      vertex -4.750000e+01 -1.750000e+01 0.000000e+00
    endloop
  endfacet
  facet normal 0.000000e+00 -1.000000e+00 0.000000e+00
    outer loop
      vertex -4.750000e+01 -1.750000e+01 5.000000e+00
      vertex -5.250000e+01 -1.750000e+01 0.000000e+00
      vertex -4.750000e+01 -1.750000e+01 0.000000e+00
    endloop
  endfacet
  facet normal 0.000000e+00 -1.000000e+00 0.000000e+00
    outer loop
      vertex -5.250000e+01 -1.750000e+01 0.000000e+00
      vertex -4.750000e+01 -1.750000e+01 5.000000e+00
      vertex -5.250000e+01 -1.750000e+01 5.000000e+00
    endloop
  endfacet
  facet normal 0.000000e+00 0.000000e+00 -1.000000e+00
    outer loop
      vertex -7.000000e+01 -3.000000e+01 0.000000e+00
      vertex -6.750000e+01 -3.250000e+01 0.000000e+00
      vertex -7.000000e+01 -8.000000e+01 0.000000e+00
    endloop
  endfacet
  facet normal 0.000000e+00 0.000000e+00 -1.000000e+00
    outer loop
      vertex -6.750000e+01 -3.250000e+01 0.000000e+00
      vertex -7.000000e+01 -3.000000e+01 0.000000e+00
      vertex -6.000000e+01 -3.000000e+01 0.000000e+00
    endloop
  endfacet
  facet normal 0.000000e+00 0.000000e+00 -1.000000e+00
    outer loop
      vertex -6.750000e+01 -3.250000e+01 0.000000e+00
      vertex -6.000000e+01 -3.000000e+01 0.000000e+00
      vertex -6.250000e+01 -3.250000e+01 0.000000e+00
    endloop
  endfacet
  facet normal 0.000000e+00 0.000000e+00 -1.000000e+00
    outer loop
      vertex -6.250000e+01 -3.250000e+01 0.000000e+00
      vertex -6.000000e+01 -3.000000e+01 0.000000e+00
      vertex -6.250000e+01 -3.750000e+01 0.000000e+00
    endloop
  endfacet
  facet normal 0.000000e+00 0.000000e+00 -1.000000e+00
    outer loop
      vertex -6.250000e+01 -3.750000e+01 0.000000e+00
      vertex -6.000000e+01 -3.000000e+01 0.000000e+00
      vertex -6.250000e+01 -4.000000e+01 0.000000e+00
    endloop
  endfacet
  facet normal 0.000000e+00 0.000000e+00 -1.000000e+00
    outer loop
      vertex -6.250000e+01 -4.000000e+01 0.000000e+00
      vertex -6.000000e+01 -3.000000e+01 0.000000e+00
      vertex -6.250000e+01 -7.000000e+01 0.000000e+00
    endloop
  endfacet
  facet normal 0.000000e+00 0.000000e+00 -1.000000e+00
    outer loop
      vertex -6.250000e+01 -7.000000e+01 0.000000e+00
      vertex -6.000000e+01 -3.000000e+01 0.000000e+00
      vertex -6.250000e+01 -7.250000e+01 0.000000e+00
    endloop
  endfacet
  facet normal 0.000000e+00 0.000000e+00 -1.000000e+00
    outer loop
      vertex -6.250000e+01 -7.250000e+01 0.000000e+00
      vertex -6.000000e+01 -3.000000e+01 0.000000e+00
      vertex -6.250000e+01 -7.750000e+01 0.000000e+00
    endloop
  endfacet
  facet normal NaN NaN NaN
    outer loop
      vertex -6.000000e+01 -7.000000e+01 0.000000e+00
      vertex -6.000000e+01 -7.250000e+01 0.000000e+00
      vertex -6.000000e+01 -3.000000e+01 0.000000e+00
    endloop
  endfacet
  facet normal 0.000000e+00 0.000000e+00 -1.000000e+00
    outer loop
      vertex -6.000000e+01 -7.250000e+01 0.000000e+00
      vertex -6.000000e+01 -7.000000e+01 0.000000e+00
      vertex -3.000000e+01 -7.250000e+01 0.000000e+00
    endloop
  endfacet
  facet normal 0.000000e+00 0.000000e+00 -1.000000e+00
    outer loop
      vertex -3.000000e+01 -7.250000e+01 0.000000e+00
      vertex -6.000000e+01 -7.000000e+01 0.000000e+00
      vertex -2.000000e+01 -7.000000e+01 0.000000e+00
    endloop
  endfacet
  facet normal 0.000000e+00 0.000000e+00 -1.000000e+00
    outer loop
      vertex -3.000000e+01 -7.250000e+01 0.000000e+00
      vertex -2.000000e+01 -7.000000e+01 0.000000e+00
      vertex -2.750000e+01 -7.250000e+01 0.000000e+00
    endloop
  endfacet
  facet normal 0.000000e+00 0.000000e+00 -1.000000e+00
    outer loop
      vertex -3.000000e+01 -7.250000e+01 0.000000e+00
      vertex -2.750000e+01 -7.250000e+01 0.000000e+00
      vertex -3.000000e+01 -7.750000e+01 0.000000e+00
    endloop
  endfacet
  facet normal 0.000000e+00 0.000000e+00 -1.000000e+00
    outer loop
      vertex -2.750000e+01 -7.250000e+01 0.000000e+00
      vertex -2.000000e+01 -7.000000e+01 0.000000e+00
      vertex -2.250000e+01 -7.250000e+01 0.000000e+00
    endloop
  endfacet
  facet normal 0.000000e+00 0.000000e+00 -1.000000e+00
    outer loop
      vertex -2.250000e+01 -7.250000e+01 0.000000e+00
      vertex -2.000000e+01 -7.000000e+01 0.000000e+00
      vertex -2.250000e+01 -7.750000e+01 0.000000e+00
    endloop
  endfacet
  facet normal 0.000000e+00 0.000000e+00 -1.000000e+00
    outer loop
      vertex -7.000000e+01 -8.000000e+01 0.000000e+00
      vertex -6.750000e+01 -7.750000e+01 0.000000e+00
      vertex -2.000000e+01 -8.000000e+01 0.000000e+00
    endloop
  endfacet
  facet normal 0.000000e+00 0.000000e+00 -1.000000e+00
    outer loop
      vertex -6.750000e+01 -7.750000e+01 0.000000e+00
      vertex -7.000000e+01 -8.000000e+01 0.000000e+00
      vertex -6.750000e+01 -3.250000e+01 0.000000e+00
    endloop
  endfacet
  facet normal NaN NaN NaN
    outer loop
      vertex -6.750000e+01 -7.750000e+01 0.000000e+00
      vertex -6.750000e+01 -3.250000e+01 0.000000e+00
      vertex -6.750000e+01 -3.750000e+01 0.000000e+00
    endloop
  endfacet
  facet normal NaN NaN NaN
    outer loop
      vertex -6.750000e+01 -7.750000e+01 0.000000e+00
      vertex -6.750000e+01 -3.750000e+01 0.000000e+00
      vertex -6.750000e+01 -4.000000e+01 0.000000e+00
    endloop
  endfacet
  facet normal NaN NaN NaN
    outer loop
      vertex -6.750000e+01 -7.750000e+01 0.000000e+00
      vertex -6.750000e+01 -4.000000e+01 0.000000e+00
      vertex -6.750000e+01 -7.000000e+01 0.000000e+00
    endloop
  endfacet
  facet normal NaN NaN NaN
    outer loop
      vertex -6.750000e+01 -7.750000e+01 0.000000e+00
      vertex -6.750000e+01 -7.000000e+01 0.000000e+00
      vertex -6.750000e+01 -7.250000e+01 0.000000e+00
    endloop
  endfacet
  facet normal 0.000000e+00 0.000000e+00 -1.000000e+00
    outer loop
      vertex -2.000000e+01 -8.000000e+01 0.000000e+00
      vertex -6.750000e+01 -7.750000e+01 0.000000e+00
      vertex -6.250000e+01 -7.750000e+01 0.000000e+00
    endloop
  endfacet
  facet normal 0.000000e+00 0.000000e+00 -1.000000e+00
    outer loop
      vertex -2.000000e+01 -8.000000e+01 0.000000e+00
      vertex -6.250000e+01 -7.750000e+01 0.000000e+00
      vertex -6.000000e+01 -7.750000e+01 0.000000e+00
    endloop
  endfacet
  facet normal 0.000000e+00 0.000000e+00 -1.000000e+00
    outer loop
      vertex -6.000000e+01 -7.750000e+01 0.000000e+00
      vertex -6.250000e+01 -7.750000e+01 0.000000e+00
      vertex -6.000000e+01 -3.000000e+01 0.000000e+00
    endloop
  endfacet
  facet normal NaN NaN NaN
    outer loop
      vertex -6.000000e+01 -7.750000e+01 0.000000e+00
      vertex -6.000000e+01 -3.000000e+01 0.000000e+00
      vertex -6.000000e+01 -7.250000e+01 0.000000e+00
    endloop
  endfacet
  facet normal 0.000000e+00 0.000000e+00 -1.000000e+00
    outer loop
      vertex -2.000000e+01 -8.000000e+01 0.000000e+00
      vertex -6.000000e+01 -7.750000e+01 0.000000e+00
      vertex -3.000000e+01 -7.750000e+01 0.000000e+00
    endloop
  endfacet
  facet normal 0.000000e+00 0.000000e+00 -1.000000e+00
    outer loop
      vertex -2.000000e+01 -8.000000e+01 0.000000e+00
      vertex -3.000000e+01 -7.750000e+01 0.000000e+00
      vertex -2.750000e+01 -7.750000e+01 0.000000e+00
    endloop
  endfacet
  facet normal 0.000000e+00 0.000000e+00 -1.000000e+00
    outer loop
      vertex -2.750000e+01 -7.750000e+01 0.000000e+00
      vertex -3.000000e+01 -7.750000e+01 0.000000e+00
      vertex -2.750000e+01 -7.250000e+01 0.000000e+00
    endloop
  endfacet
  facet normal 0.000000e+00 0.000000e+00 -1.000000e+00
    outer loop
      vertex -2.000000e+01 -8.000000e+01 0.000000e+00
      vertex -2.750000e+01 -7.750000e+01 0.000000e+00
      vertex -2.250000e+01 -7.750000e+01 0.000000e+00
    endloop
  endfacet
  facet normal 0.000000e+00 0.000000e+00 -1.000000e+00
    outer loop
      vertex -2.000000e+01 -8.000000e+01 0.000000e+00
      vertex -2.250000e+01 -7.750000e+01 0.000000e+00
      vertex -2.000000e+01 -7.000000e+01 0.000000e+00
    endloop
  endfacet
  facet normal 0.000000e+00 0.000000e+00 -1.000000e+00
    outer loop
      vertex -6.250000e+01 -7.000000e+01 0.000000e+00
      vertex -6.750000e+01 -7.250000e+01 0.000000e+00
      vertex -6.750000e+01 -7.000000e+01 0.000000e+00
    endloop
  endfacet
  facet normal 0.000000e+00 0.000000e+00 -1.000000e+00
    outer loop
      vertex -6.750000e+01 -7.250000e+01 0.000000e+00
      vertex -6.250000e+01 -7.000000e+01 0.000000e+00
      vertex -6.250000e+01 -7.250000e+01 0.000000e+00
    endloop
  endfacet
  facet normal 0.000000e+00 0.000000e+00 -1.000000e+00
    outer loop
      vertex -6.250000e+01 -3.750000e+01 0.000000e+00
      vertex -6.750000e+01 -4.000000e+01 0.000000e+00
      vertex -6.750000e+01 -3.750000e+01 0.000000e+00
    endloop
  endfacet
  facet normal 0.000000e+00 0.000000e+00 -1.000000e+00
    outer loop
      vertex -6.750000e+01 -4.000000e+01 0.000000e+00
      vertex -6.250000e+01 -3.750000e+01 0.000000e+00
      vertex -6.250000e+01 -4.000000e+01 0.000000e+00
    endloop
  endfacet
  facet normal 0.000000e+00 0.000000e+00 1.000000e+00
    outer loop
      vertex -7.000000e+01 -8.000000e+01 5.000000e+00
      vertex -6.750000e+01 -7.750000e+01 5.000000e+00
      vertex -7.000000e+01 -3.000000e+01 5.000000e+00
    endloop
  endfacet
  facet normal 0.000000e+00 0.000000e+00 1.000000e+00
    outer loop
      vertex -6.750000e+01 -7.750000e+01 5.000000e+00
      vertex -7.000000e+01 -8.000000e+01 5.000000e+00
      vertex -2.000000e+01 -8.000000e+01 5.000000e+00
    endloop
  endfacet
  facet normal 0.000000e+00 0.000000e+00 1.000000e+00
    outer loop
      vertex -6.750000e+01 -7.750000e+01 5.000000e+00
      vertex -2.000000e+01 -8.000000e+01 5.000000e+00
      vertex -6.250000e+01 -7.750000e+01 5.000000e+00
    endloop
  endfacet
  facet normal 0.000000e+00 0.000000e+00 1.000000e+00
    outer loop
      vertex -6.250000e+01 -7.750000e+01 5.000000e+00
      vertex -2.000000e+01 -8.000000e+01 5.000000e+00
      vertex -6.000000e+01 -7.750000e+01 5.000000e+00
    endloop
  endfacet
  facet normal 0.000000e+00 0.000000e+00 1.000000e+00
    outer loop
      vertex -6.250000e+01 -7.750000e+01 5.000000e+00
      vertex -6.000000e+01 -7.750000e+01 5.000000e+00
      vertex -6.250000e+01 -7.250000e+01 5.000000e+00
    endloop
  endfacet
  facet normal 0.000000e+00 0.000000e+00 1.000000e+00
    outer loop
      vertex -6.250000e+01 -7.250000e+01 5.000000e+00
      vertex -6.000000e+01 -7.750000e+01 5.000000e+00
      vertex -6.250000e+01 -7.000000e+01 5.000000e+00
    endloop
  endfacet
  facet normal 0.000000e+00 0.000000e+00 1.000000e+00
    outer loop
      vertex -6.250000e+01 -7.000000e+01 5.000000e+00
      vertex -6.000000e+01 -7.750000e+01 5.000000e+00
      vertex -6.250000e+01 -4.000000e+01 5.000000e+00
    endloop
  endfacet
  facet normal 0.000000e+00 0.000000e+00 1.000000e+00
    outer loop
      vertex -6.250000e+01 -4.000000e+01 5.000000e+00
      vertex -6.000000e+01 -7.750000e+01 5.000000e+00
      vertex -6.250000e+01 -3.750000e+01 5.000000e+00
    endloop
  endfacet
  facet normal 0.000000e+00 0.000000e+00 1.000000e+00
    outer loop
      vertex -6.250000e+01 -3.750000e+01 5.000000e+00
      vertex -6.000000e+01 -7.750000e+01 5.000000e+00
      vertex -6.250000e+01 -3.250000e+01 5.000000e+00
    endloop
  endfacet
  facet normal 0.000000e+00 0.000000e+00 1.000000e+00
    outer loop
      vertex -6.000000e+01 -7.750000e+01 5.000000e+00
      vertex -2.000000e+01 -8.000000e+01 5.000000e+00
      vertex -3.000000e+01 -7.750000e+01 5.000000e+00
    endloop
  endfacet
  facet normal 0.000000e+00 0.000000e+00 1.000000e+00
    outer loop
      vertex -3.000000e+01 -7.750000e+01 5.000000e+00
      vertex -2.000000e+01 -8.000000e+01 5.000000e+00
      vertex -2.750000e+01 -7.750000e+01 5.000000e+00
    endloop
  endfacet
  facet normal 0.000000e+00 0.000000e+00 1.000000e+00
    outer loop
      vertex -3.000000e+01 -7.750000e+01 5.000000e+00
      vertex -2.750000e+01 -7.750000e+01 5.000000e+00
      vertex -3.000000e+01 -7.250000e+01 5.000000e+00
    endloop
  endfacet
  facet normal 0.000000e+00 0.000000e+00 1.000000e+00
    outer loop
      vertex -2.750000e+01 -7.750000e+01 5.000000e+00
      vertex -2.000000e+01 -8.000000e+01 5.000000e+00
      vertex -2.250000e+01 -7.750000e+01 5.000000e+00
    endloop
  endfacet
  facet normal 0.000000e+00 0.000000e+00 1.000000e+00
    outer loop
      vertex -2.250000e+01 -7.750000e+01 5.000000e+00
      vertex -2.000000e+01 -8.000000e+01 5.000000e+00
      vertex -2.250000e+01 -7.250000e+01 5.000000e+00
    endloop
  endfacet
  facet normal 0.000000e+00 0.000000e+00 1.000000e+00
    outer loop
      vertex -7.000000e+01 -3.000000e+01 5.000000e+00
      vertex -6.750000e+01 -3.250000e+01 5.000000e+00
      vertex -6.000000e+01 -3.000000e+01 5.000000e+00
    endloop
  endfacet
  facet normal 0.000000e+00 0.000000e+00 1.000000e+00
    outer loop
      vertex -6.750000e+01 -3.250000e+01 5.000000e+00
      vertex -7.000000e+01 -3.000000e+01 5.000000e+00
      vertex -6.750000e+01 -7.750000e+01 5.000000e+00
    endloop
  endfacet
  facet normal NaN NaN NaN
    outer loop
      vertex -6.750000e+01 -3.250000e+01 5.000000e+00
      vertex -6.750000e+01 -7.750000e+01 5.000000e+00
      vertex -6.750000e+01 -7.250000e+01 5.000000e+00
    endloop
  endfacet
  facet normal NaN NaN NaN
    outer loop
      vertex -6.750000e+01 -3.250000e+01 5.000000e+00
      vertex -6.750000e+01 -7.250000e+01 5.000000e+00
      vertex -6.750000e+01 -7.000000e+01 5.000000e+00
    endloop
  endfacet
  facet normal NaN NaN NaN
    outer loop
      vertex -6.750000e+01 -3.250000e+01 5.000000e+00
      vertex -6.750000e+01 -7.000000e+01 5.000000e+00
      vertex -6.750000e+01 -4.000000e+01 5.000000e+00
    endloop
  endfacet
  facet normal NaN NaN NaN
    outer loop
      vertex -6.750000e+01 -3.250000e+01 5.000000e+00
      vertex -6.750000e+01 -4.000000e+01 5.000000e+00
      vertex -6.750000e+01 -3.750000e+01 5.000000e+00
    endloop
  endfacet
  facet normal 0.000000e+00 0.000000e+00 1.000000e+00
    outer loop
      vertex -6.000000e+01 -3.000000e+01 5.000000e+00
      vertex -6.750000e+01 -3.250000e+01 5.000000e+00
      vertex -6.250000e+01 -3.250000e+01 5.000000e+00
    endloop
  endfacet
  facet normal 0.000000e+00 0.000000e+00 1.000000e+00
    outer loop
      vertex -6.000000e+01 -3.000000e+01 5.000000e+00
      vertex -6.250000e+01 -3.250000e+01 5.000000e+00
      vertex -6.000000e+01 -7.750000e+01 5.000000e+00
    endloop
  endfacet
  facet normal NaN NaN NaN
    outer loop
      vertex -6.000000e+01 -3.000000e+01 5.000000e+00
      vertex -6.000000e+01 -7.750000e+01 5.000000e+00
      vertex -6.000000e+01 -7.250000e+01 5.000000e+00
    endloop
  endfacet
  facet normal NaN NaN NaN
    outer loop
      vertex -6.000000e+01 -3.000000e+01 5.000000e+00
      vertex -6.000000e+01 -7.250000e+01 5.000000e+00
      vertex -6.000000e+01 -7.000000e+01 5.000000e+00
    endloop
  endfacet
  facet normal 0.000000e+00 0.000000e+00 1.000000e+00
    outer loop
      vertex -6.000000e+01 -7.000000e+01 5.000000e+00
      vertex -6.000000e+01 -7.250000e+01 5.000000e+00
      vertex -3.000000e+01 -7.250000e+01 5.000000e+00
    endloop
  endfacet
  facet normal 0.000000e+00 0.000000e+00 1.000000e+00
    outer loop
      vertex -6.000000e+01 -7.000000e+01 5.000000e+00
      vertex -3.000000e+01 -7.250000e+01 5.000000e+00
      vertex -2.000000e+01 -7.000000e+01 5.000000e+00
    endloop
  endfacet
  facet normal 0.000000e+00 0.000000e+00 1.000000e+00
    outer loop
      vertex -2.000000e+01 -7.000000e+01 5.000000e+00
      vertex -3.000000e+01 -7.250000e+01 5.000000e+00
      vertex -2.750000e+01 -7.250000e+01 5.000000e+00
    endloop
  endfacet
  facet normal 0.000000e+00 0.000000e+00 1.000000e+00
    outer loop
      vertex -2.750000e+01 -7.250000e+01 5.000000e+00
      vertex -3.000000e+01 -7.250000e+01 5.000000e+00
      vertex -2.750000e+01 -7.750000e+01 5.000000e+00
    endloop
  endfacet
  facet normal 0.000000e+00 0.000000e+00 1.000000e+00
    outer loop
      vertex -2.000000e+01 -7.000000e+01 5.000000e+00
      vertex -2.750000e+01 -7.250000e+01 5.000000e+00
      vertex -2.250000e+01 -7.250000e+01 5.000000e+00
    endloop
  endfacet
  facet normal 0.000000e+00 0.000000e+00 1.000000e+00
    outer loop
      vertex -2.000000e+01 -7.000000e+01 5.000000e+00
      vertex -2.250000e+01 -7.250000e+01 5.000000e+00
      vertex -2.000000e+01 -8.000000e+01 5.000000e+00
    endloop
  endfacet
  facet normal 0.000000e+00 0.000000e+00 1.000000e+00
    outer loop
      vertex -6.250000e+01 -4.000000e+01 5.000000e+00
      vertex -6.750000e+01 -3.750000e+01 5.000000e+00
      vertex -6.750000e+01 -4.000000e+01 5.000000e+00
    endloop
  endfacet
  facet normal 0.000000e+00 0.000000e+00 1.000000e+00
    outer loop
      vertex -6.750000e+01 -3.750000e+01 5.000000e+00
      vertex -6.250000e+01 -4.000000e+01 5.000000e+00
      vertex -6.250000e+01 -3.750000e+01 5.000000e+00
    endloop
  endfacet
  facet normal 0.000000e+00 0.000000e+00 1.000000e+00
    outer loop
      vertex -6.250000e+01 -7.250000e+01 5.000000e+00
      vertex -6.750000e+01 -7.000000e+01 5.000000e+00
      vertex -6.750000e+01 -7.250000e+01 5.000000e+00
    endloop
  endfacet
  facet normal 0.000000e+00 0.000000e+00 1.000000e+00
    outer loop
      vertex -6.750000e+01 -7.000000e+01 5.000000e+00
      vertex -6.250000e+01 -7.250000e+01 5.000000e+00
      vertex -6.250000e+01 -7.000000e+01 5.000000e+00
    endloop
  endfacet
  facet normal 0.000000e+00 1.000000e+00 0.000000e+00
    outer loop
      vertex -6.000000e+01 -3.000000e+01 0.000000e+00
      vertex -7.000000e+01 -3.000000e+01 0.000000e+00
      vertex -7.000000e+01 -3.000000e+01 5.000000e+00
    endloop
  endfacet
  facet normal 0.000000e+00 1.000000e+00 0.000000e+00
    outer loop
      vertex -6.000000e+01 -3.000000e+01 0.000000e+00
      vertex -7.000000e+01 -3.000000e+01 5.000000e+00
      vertex -6.000000e+01 -3.000000e+01 5.000000e+00
    endloop
  endfacet
  facet normal 1.000000e+00 0.000000e+00 0.000000e+00
    outer loop
      vertex -6.000000e+01 -3.000000e+01 0.000000e+00
      vertex -6.000000e+01 -7.000000e+01 5.000000e+00
      vertex -6.000000e+01 -7.000000e+01 0.000000e+00
    endloop
  endfacet
  facet normal 1.000000e+00 0.000000e+00 0.000000e+00
    outer loop
      vertex -6.000000e+01 -7.000000e+01 5.000000e+00
      vertex -6.000000e+01 -3.000000e+01 0.000000e+00
      vertex -6.000000e+01 -3.000000e+01 5.000000e+00
    endloop
  endfacet
  facet normal 0.000000e+00 1.000000e+00 0.000000e+00
    outer loop
      vertex -6.000000e+01 -7.000000e+01 5.000000e+00
      vertex -2.000000e+01 -7.000000e+01 0.000000e+00
      vertex -6.000000e+01 -7.000000e+01 0.000000e+00
    endloop
  endfacet
  facet normal 0.000000e+00 1.000000e+00 0.000000e+00
    outer loop
      vertex -2.000000e+01 -7.000000e+01 0.000000e+00
      vertex -6.000000e+01 -7.000000e+01 5.000000e+00
      vertex -2.000000e+01 -7.000000e+01 5.000000e+00
    endloop
  endfacet
  facet normal 1.000000e+00 0.000000e+00 0.000000e+00
    outer loop
      vertex -2.000000e+01 -7.000000e+01 0.000000e+00
      vertex -2.000000e+01 -8.000000e+01 5.000000e+00
      vertex -2.000000e+01 -8.000000e+01 0.000000e+00
    endloop
  endfacet
  facet normal 1.000000e+00 0.000000e+00 0.000000e+00
    outer loop
      vertex -2.000000e+01 -8.000000e+01 5.000000e+00
      vertex -2.000000e+01 -7.000000e+01 0.000000e+00
      vertex -2.000000e+01 -7.000000e+01 5.000000e+00
    endloop
  endfacet
  facet normal 0.000000e+00 -1.000000e+00 0.000000e+00
    outer loop
      vertex -2.000000e+01 -8.000000e+01 5.000000e+00
      vertex -7.000000e+01 -8.000000e+01 0.000000e+00
      vertex -2.000000e+01 -8.000000e+01 0.000000e+00
    endloop
  endfacet
  facet normal 0.000000e+00 -1.000000e+00 0.000000e+00
    outer loop
      vertex -7.000000e+01 -8.000000e+01 0.000000e+00
      vertex -2.000000e+01 -8.000000e+01 5.000000e+00
      vertex -7.000000e+01 -8.000000e+01 5.000000e+00
    endloop
  endfacet
  facet normal -1.000000e+00 0.000000e+00 0.000000e+00
    outer loop
      vertex -7.000000e+01 -3.000000e+01 5.000000e+00
      vertex -7.000000e+01 -8.000000e+01 0.000000e+00
      vertex -7.000000e+01 -8.000000e+01 5.000000e+00
    endloop
  endfacet
  facet normal -1.000000e+00 0.000000e+00 0.000000e+00
    outer loop
      vertex -7.000000e+01 -3.000000e+01 5.000000e+00
      vertex -7.000000e+01 -3.000000e+01 0.000000e+00
      vertex -7.000000e+01 -8.000000e+01 0.000000e+00
    endloop
  endfacet
  facet normal 0.000000e+00 -1.000000e+00 0.000000e+00
    outer loop
      vertex -6.250000e+01 -7.250000e+01 5.000000e+00
      vertex -6.750000e+01 -7.250000e+01 0.000000e+00
      vertex -6.250000e+01 -7.250000e+01 0.000000e+00
    endloop
  endfacet
  facet normal 0.000000e+00 -1.000000e+00 0.000000e+00
    outer loop
      vertex -6.750000e+01 -7.250000e+01 0.000000e+00
      vertex -6.250000e+01 -7.250000e+01 5.000000e+00
      vertex -6.750000e+01 -7.250000e+01 5.000000e+00
    endloop
  endfacet
  facet normal 1.000000e+00 0.000000e+00 0.000000e+00
    outer loop
      vertex -6.750000e+01 -7.250000e+01 0.000000e+00
      vertex -6.750000e+01 -7.750000e+01 5.000000e+00
      vertex -6.750000e+01 -7.750000e+01 0.000000e+00
    endloop
  endfacet
  facet normal 1.000000e+00 0.000000e+00 0.000000e+00
    outer loop
      vertex -6.750000e+01 -7.750000e+01 5.000000e+00
      vertex -6.750000e+01 -7.250000e+01 0.000000e+00
      vertex -6.750000e+01 -7.250000e+01 5.000000e+00
    endloop
  endfacet
  facet normal 0.000000e+00 1.000000e+00 0.000000e+00
    outer loop
      vertex -6.750000e+01 -7.750000e+01 5.000000e+00
      vertex -6.250000e+01 -7.750000e+01 0.000000e+00
      vertex -6.750000e+01 -7.750000e+01 0.000000e+00
    endloop
  endfacet
  facet normal 0.000000e+00 1.000000e+00 0.000000e+00
    outer loop
      vertex -6.250000e+01 -7.750000e+01 0.000000e+00
      vertex -6.750000e+01 -7.750000e+01 5.000000e+00
      vertex -6.250000e+01 -7.750000e+01 5.000000e+00
    endloop
  endfacet
  facet normal -1.000000e+00 0.000000e+00 0.000000e+00
    outer loop
      vertex -6.250000e+01 -7.250000e+01 5.000000e+00
      vertex -6.250000e+01 -7.750000e+01 0.000000e+00
      vertex -6.250000e+01 -7.750000e+01 5.000000e+00
    endloop
  endfacet
  facet normal -1.000000e+00 0.000000e+00 0.000000e+00
    outer loop
      vertex -6.250000e+01 -7.750000e+01 0.000000e+00
      vertex -6.250000e+01 -7.250000e+01 5.000000e+00
      vertex -6.250000e+01 -7.250000e+01 0.000000e+00
    endloop
  endfacet
  facet normal 1.000000e+00 0.000000e+00 0.000000e+00
    outer loop
      vertex -6.000000e+01 -7.250000e+01 0.000000e+00
      vertex -6.000000e+01 -7.750000e+01 5.000000e+00
      vertex -6.000000e+01 -7.750000e+01 0.000000e+00
    endloop
  endfacet
  facet normal 1.000000e+00 0.000000e+00 0.000000e+00
    outer loop
      vertex -6.000000e+01 -7.750000e+01 5.000000e+00
      vertex -6.000000e+01 -7.250000e+01 0.000000e+00
      vertex -6.000000e+01 -7.250000e+01 5.000000e+00
    endloop
  endfacet
  facet normal 0.000000e+00 1.000000e+00 0.000000e+00
    outer loop
      vertex -6.000000e+01 -7.750000e+01 5.000000e+00
      vertex -3.000000e+01 -7.750000e+01 0.000000e+00
      vertex -6.000000e+01 -7.750000e+01 0.000000e+00
    endloop
  endfacet
  facet normal 0.000000e+00 1.000000e+00 0.000000e+00
    outer loop
      vertex -3.000000e+01 -7.750000e+01 0.000000e+00
      vertex -6.000000e+01 -7.750000e+01 5.000000e+00
      vertex -3.000000e+01 -7.750000e+01 5.000000e+00
    endloop
  endfacet
  facet normal -1.000000e+00 0.000000e+00 0.000000e+00
    outer loop
      vertex -3.000000e+01 -7.250000e+01 5.000000e+00
      vertex -3.000000e+01 -7.750000e+01 0.000000e+00
      vertex -3.000000e+01 -7.750000e+01 5.000000e+00
    endloop
  endfacet
  facet normal -1.000000e+00 0.000000e+00 0.000000e+00
    outer loop
      vertex -3.000000e+01 -7.750000e+01 0.000000e+00
      vertex -3.000000e+01 -7.250000e+01 5.000000e+00
      vertex -3.000000e+01 -7.250000e+01 0.000000e+00
    endloop
  endfacet
  facet normal 0.000000e+00 -1.000000e+00 0.000000e+00
    outer loop
      vertex -3.000000e+01 -7.250000e+01 5.000000e+00
      vertex -6.000000e+01 -7.250000e+01 0.000000e+00
      vertex -3.000000e+01 -7.250000e+01 0.000000e+00
    endloop
  endfacet
  facet normal 0.000000e+00 -1.000000e+00 0.000000e+00
    outer loop
      vertex -6.000000e+01 -7.250000e+01 0.000000e+00
      vertex -3.000000e+01 -7.250000e+01 5.000000e+00
      vertex -6.000000e+01 -7.250000e+01 5.000000e+00
    endloop
  endfacet
  facet normal -1.000000e+00 0.000000e+00 0.000000e+00
    outer loop
      vertex -2.250000e+01 -7.250000e+01 5.000000e+00
      vertex -2.250000e+01 -7.750000e+01 0.000000e+00
      vertex -2.250000e+01 -7.750000e+01 5.000000e+00
    endloop
  endfacet
  facet normal -1.000000e+00 0.000000e+00 0.000000e+00
    outer loop
      vertex -2.250000e+01 -7.750000e+01 0.000000e+00
      vertex -2.250000e+01 -7.250000e+01 5.000000e+00
      vertex -2.250000e+01 -7.250000e+01 0.000000e+00
    endloop
  endfacet
  facet normal 0.000000e+00 -1.000000e+00 0.000000e+00
    outer loop
      vertex -2.250000e+01 -7.250000e+01 5.000000e+00
      vertex -2.750000e+01 -7.250000e+01 0.000000e+00
      vertex -2.250000e+01 -7.250000e+01 0.000000e+00
    endloop
  endfacet
  facet normal 0.000000e+00 -1.000000e+00 0.000000e+00
    outer loop
      vertex -2.750000e+01 -7.250000e+01 0.000000e+00
      vertex -2.250000e+01 -7.250000e+01 5.000000e+00
      vertex -2.750000e+01 -7.250000e+01 5.000000e+00
    endloop
  endfacet
  facet normal 1.000000e+00 0.000000e+00 0.000000e+00
    outer loop
      vertex -2.750000e+01 -7.250000e+01 0.000000e+00
      vertex -2.750000e+01 -7.750000e+01 5.000000e+00
      vertex -2.750000e+01 -7.750000e+01 0.000000e+00
    endloop
  endfacet
  facet normal 1.000000e+00 0.000000e+00 0.000000e+00
    outer loop
      vertex -2.750000e+01 -7.750000e+01 5.000000e+00
      vertex -2.750000e+01 -7.250000e+01 0.000000e+00
      vertex -2.750000e+01 -7.250000e+01 5.000000e+00
    endloop
  endfacet
  facet normal 0.000000e+00 1.000000e+00 0.000000e+00
    outer loop
      vertex -2.750000e+01 -7.750000e+01 5.000000e+00
      vertex -2.250000e+01 -7.750000e+01 0.000000e+00
      vertex -2.750000e+01 -7.750000e+01 0.000000e+00
    endloop
  endfacet
  facet normal 0.000000e+00 1.000000e+00 0.000000e+00
    outer loop
      vertex -2.250000e+01 -7.750000e+01 0.000000e+00
      vertex -2.750000e+01 -7.750000e+01 5.000000e+00
      vertex -2.250000e+01 -7.750000e+01 5.000000e+00
    endloop
  endfacet
  facet normal 0.000000e+00 1.000000e+00 0.000000e+00
    outer loop
      vertex -6.750000e+01 -7.000000e+01 5.000000e+00
      vertex -6.250000e+01 -7.000000e+01 0.000000e+00
      vertex -6.750000e+01 -7.000000e+01 0.000000e+00
    endloop
  endfacet
  facet normal 0.000000e+00 1.000000e+00 0.000000e+00
    outer loop
      vertex -6.250000e+01 -7.000000e+01 0.000000e+00
      vertex -6.750000e+01 -7.000000e+01 5.000000e+00
      vertex -6.250000e+01 -7.000000e+01 5.000000e+00
    endloop
  endfacet
  facet normal -1.000000e+00 0.000000e+00 0.000000e+00
    outer loop
      vertex -6.250000e+01 -4.000000e+01 5.000000e+00
      vertex -6.250000e+01 -7.000000e+01 0.000000e+00
      vertex -6.250000e+01 -7.000000e+01 5.000000e+00
    endloop
  endfacet
  facet normal -1.000000e+00 0.000000e+00 0.000000e+00
    outer loop
      vertex -6.250000e+01 -7.000000e+01 0.000000e+00
      vertex -6.250000e+01 -4.000000e+01 5.000000e+00
      vertex -6.250000e+01 -4.000000e+01 0.000000e+00
    endloop
  endfacet
  facet normal 0.000000e+00 -1.000000e+00 0.000000e+00
    outer loop
      vertex -6.250000e+01 -4.000000e+01 5.000000e+00
      vertex -6.750000e+01 -4.000000e+01 0.000000e+00
      vertex -6.250000e+01 -4.000000e+01 0.000000e+00
    endloop
  endfacet
  facet normal 0.000000e+00 -1.000000e+00 0.000000e+00
    outer loop
      vertex -6.750000e+01 -4.000000e+01 0.000000e+00
      vertex -6.250000e+01 -4.000000e+01 5.000000e+00
      vertex -6.750000e+01 -4.000000e+01 5.000000e+00
    endloop
  endfacet
  facet normal 1.000000e+00 0.000000e+00 0.000000e+00
    outer loop
      vertex -6.750000e+01 -4.000000e+01 0.000000e+00
      vertex -6.750000e+01 -7.000000e+01 5.000000e+00
      vertex -6.750000e+01 -7.000000e+01 0.000000e+00
    endloop
  endfacet
  facet normal 1.000000e+00 0.000000e+00 0.000000e+00
    outer loop
      vertex -6.750000e+01 -7.000000e+01 5.000000e+00
      vertex -6.750000e+01 -4.000000e+01 0.000000e+00
      vertex -6.750000e+01 -4.000000e+01 5.000000e+00
    endloop
  endfacet
  facet normal 1.000000e+00 0.000000e+00 0.000000e+00
    outer loop
      vertex -6.750000e+01 -3.250000e+01 0.000000e+00
      vertex -6.750000e+01 -3.750000e+01 5.000000e+00
      vertex -6.750000e+01 -3.750000e+01 0.000000e+00
    endloop
  endfacet
  facet normal 1.000000e+00 0.000000e+00 0.000000e+00
    outer loop
      vertex -6.750000e+01 -3.750000e+01 5.000000e+00
      vertex -6.750000e+01 -3.250000e+01 0.000000e+00
      vertex -6.750000e+01 -3.250000e+01 5.000000e+00
    endloop
  endfacet
  facet normal 0.000000e+00 1.000000e+00 0.000000e+00
    outer loop
      vertex -6.750000e+01 -3.750000e+01 5.000000e+00
      vertex -6.250000e+01 -3.750000e+01 0.000000e+00
      vertex -6.750000e+01 -3.750000e+01 0.000000e+00
    endloop
  endfacet
  facet normal 0.000000e+00 1.000000e+00 0.000000e+00
    outer loop
      vertex -6.250000e+01 -3.750000e+01 0.000000e+00
      vertex -6.750000e+01 -3.750000e+01 5.000000e+00
      vertex -6.250000e+01 -3.750000e+01 5.000000e+00
    endloop
  endfacet
  facet normal -1.000000e+00 0.000000e+00 0.000000e+00
    outer loop
      vertex -6.250000e+01 -3.250000e+01 5.000000e+00
      vertex -6.250000e+01 -3.750000e+01 0.000000e+00
      vertex -6.250000e+01 -3.750000e+01 5.000000e+00
    endloop
  endfacet
  facet normal -1.000000e+00 0.000000e+00 0.000000e+00
    outer loop
      vertex -6.250000e+01 -3.750000e+01 0.000000e+00
      vertex -6.250000e+01 -3.250000e+01 5.000000e+00
      vertex -6.250000e+01 -3.250000e+01 0.000000e+00
    endloop
  endfacet
  facet normal 0.000000e+00 -1.000000e+00 0.000000e+00
    outer loop
      vertex -6.250000e+01 -3.250000e+01 5.000000e+00
      vertex -6.750000e+01 -3.250000e+01 0.000000e+00
      vertex -6.250000e+01 -3.250000e+01 0.000000e+00
    endloop
  endfacet
  facet normal 0.000000e+00 -1.000000e+00 0.000000e+00
    outer loop
      vertex -6.750000e+01 -3.250000e+01 0.000000e+00
      vertex -6.250000e+01 -3.250000e+01 5.000000e+00
      vertex -6.750000e+01 -3.250000e+01 5.000000e+00
    endloop
  endfacet
endsolid Default
