solid Default
  facet normal 0.000000e+00 0.000000e+00 -9.999999e-01
    outer loop
      vertex 7.499996e+01 7.499997e+01 0.000000e+00
      vertex 7.499996e+01 -7.499996e+01 0.000000e+00
      vertex 7.083333e+01 -7.083333e+01 0.000000e+00
    endloop
  endfacet
  facet normal 0.000000e+00 0.000000e+00 -9.999999e-01
    outer loop
      vertex 7.083333e+01 -7.083333e+01 0.000000e+00
      vertex 7.083333e+01 7.083335e+01 0.000000e+00
      vertex 7.499996e+01 7.499997e+01 0.000000e+00
    endloop
  endfacet
  facet normal 0.000000e+00 0.000000e+00 -9.999999e-01
    outer loop
      vertex -7.083335e+01 7.083335e+01 0.000000e+00
      vertex -7.499995e+01 7.500000e+01 0.000000e+00
      vertex 7.499996e+01 7.499997e+01 0.000000e+00
    endloop
  endfacet
  facet normal 0.000000e+00 0.000000e+00 -9.999999e-01
    outer loop
      vertex 7.499996e+01 7.499997e+01 0.000000e+00
      vertex 7.083333e+01 7.083335e+01 0.000000e+00
      vertex -7.083335e+01 7.083335e+01 0.000000e+00
    endloop
  endfacet
  facet normal 0.000000e+00 0.000000e+00 -9.999999e-01
    outer loop
      vertex -7.083335e+01 -7.083333e+01 0.000000e+00
      vertex 7.083333e+01 -7.083333e+01 0.000000e+00
      vertex 7.499996e+01 -7.499996e+01 0.000000e+00
    endloop
  endfacet
  facet normal 0.000000e+00 0.000000e+00 -9.999999e-01
    outer loop
      vertex 7.499996e+01 -7.499996e+01 0.000000e+00
      vertex -7.499998e+01 -7.499995e+01 0.000000e+00
      vertex -7.083335e+01 -7.083333e+01 0.000000e+00
    endloop
  endfacet
  facet normal 0.000000e+00 0.000000e+00 -9.999999e-01
    outer loop
      vertex -7.083335e+01 -7.083333e+01 0.000000e+00
      vertex -7.499998e+01 -7.499995e+01 0.000000e+00
      vertex -7.499995e+01 7.500000e+01 0.000000e+00
    endloop
  endfacet
  facet normal 0.000000e+00 0.000000e+00 -9.999999e-01
    outer loop
      vertex -7.499995e+01 7.500000e+01 0.000000e+00
      vertex -7.083335e+01 7.083335e+01 0.000000e+00
      vertex -7.083335e+01 -7.083333e+01 0.000000e+00
    endloop
  endfacet
  facet normal 0.000000e+00 0.000000e+00 9.999999e-01
    outer loop
      vertex 7.500000e+01 7.499994e+01 4.166667e-01
      vertex 7.083333e+01 7.083335e+01 4.166667e-01
      vertex 7.083333e+01 -7.083333e+01 4.166667e-01
    endloop
  endfacet
  facet normal 0.000000e+00 0.000000e+00 9.999999e-01
    outer loop
      vertex 7.083333e+01 -7.083333e+01 4.166667e-01
      vertex 7.499991e+01 -7.500000e+01 4.166667e-01
      vertex 7.500000e+01 7.499994e+01 4.166667e-01
    endloop
  endfacet
  facet normal 0.000000e+00 0.000000e+00 9.999999e-01
    outer loop
      vertex 7.500000e+01 7.499994e+01 4.166667e-01
      vertex -7.499997e+01 7.499998e+01 4.166667e-01
      vertex -7.083335e+01 7.083335e+01 4.166667e-01
    endloop
  endfacet
  facet normal 0.000000e+00 0.000000e+00 9.999999e-01
    outer loop
      vertex -7.083335e+01 7.083335e+01 4.166667e-01
      vertex 7.083333e+01 7.083335e+01 4.166667e-01
      vertex 7.500000e+01 7.499994e+01 4.166667e-01
    endloop
  endfacet
  facet normal 0.000000e+00 0.000000e+00 9.999999e-01
    outer loop
      vertex -7.083335e+01 -7.083333e+01 4.166667e-01
      vertex -7.500000e+01 -7.499993e+01 4.166667e-01
      vertex 7.499991e+01 -7.500000e+01 4.166667e-01
    endloop
  endfacet
  facet normal 0.000000e+00 0.000000e+00 9.999999e-01
    outer loop
      vertex 7.499991e+01 -7.500000e+01 4.166667e-01
      vertex 7.083333e+01 -7.083333e+01 4.166667e-01
      vertex -7.083335e+01 -7.083333e+01 4.166667e-01
    endloop
  endfacet
  facet normal 0.000000e+00 0.000000e+00 9.999999e-01
    outer loop
      vertex -7.499997e+01 7.499998e+01 4.166667e-01
      vertex -7.500000e+01 -7.499993e+01 4.166667e-01
      vertex -7.083335e+01 -7.083333e+01 4.166667e-01
    endloop
  endfacet
  facet normal 0.000000e+00 0.000000e+00 9.999999e-01
    outer loop
      vertex -7.083335e+01 -7.083333e+01 4.166667e-01
      vertex -7.083335e+01 7.083335e+01 4.166667e-01
      vertex -7.499997e+01 7.499998e+01 4.166667e-01
    endloop
  endfacet
  facet normal 9.999999e-01 -5.933976e-07 -9.155277e-05
    outer loop
      vertex 7.499996e+01 7.499997e+01 0.000000e+00
      vertex 7.500000e+01 7.499994e+01 4.166667e-01
      vertex 7.499991e+01 -7.500000e+01 4.166667e-01
    endloop
  endfacet
  facet normal 9.999999e-01 0.000000e+00 1.220703e-04
    outer loop
      vertex 7.499991e+01 -7.500000e+01 4.166667e-01
      vertex 7.499996e+01 -7.499996e+01 0.000000e+00
      vertex 7.499996e+01 7.499997e+01 0.000000e+00
    endloop
  endfacet
  facet normal -4.662410e-07 -9.999999e-01 -1.068116e-04
    outer loop
      vertex 7.499996e+01 -7.499996e+01 0.000000e+00
      vertex 7.499991e+01 -7.500000e+01 4.166667e-01
      vertex -7.500000e+01 -7.499993e+01 4.166667e-01
    endloop
  endfacet
  facet normal -8.477108e-08 -9.999999e-01 3.051757e-05
    outer loop
      vertex -7.500000e+01 -7.499993e+01 4.166667e-01
      vertex -7.499998e+01 -7.499995e+01 0.000000e+00
      vertex 7.499996e+01 -7.499996e+01 0.000000e+00
    endloop
  endfacet
  facet normal -9.999999e-01 2.119278e-07 -4.577637e-05
    outer loop
      vertex -7.499998e+01 -7.499995e+01 0.000000e+00
      vertex -7.500000e+01 -7.499993e+01 4.166667e-01
      vertex -7.499997e+01 7.499998e+01 4.166667e-01
    endloop
  endfacet
  facet normal -9.999999e-01 2.119277e-07 -4.577635e-05
    outer loop
      vertex -7.499997e+01 7.499998e+01 4.166667e-01
      vertex -7.499995e+01 7.500000e+01 0.000000e+00
      vertex -7.499998e+01 -7.499995e+01 0.000000e+00
    endloop
  endfacet
  facet normal 2.119278e-07 9.999999e-01 6.103516e-05
    outer loop
      vertex 7.499996e+01 7.499997e+01 0.000000e+00
      vertex -7.499995e+01 7.500000e+01 0.000000e+00
      vertex -7.499997e+01 7.499998e+01 4.166667e-01
    endloop
  endfacet
  facet normal 2.543132e-07 9.999999e-01 7.629392e-05
    outer loop
      vertex -7.499997e+01 7.499998e+01 4.166667e-01
      vertex 7.500000e+01 7.499994e+01 4.166667e-01
      vertex 7.499996e+01 7.499997e+01 0.000000e+00
    endloop
  endfacet
  facet normal 9.999999e-01 0.000000e+00 0.000000e+00
    outer loop
      vertex -7.083335e+01 -7.083333e+01 4.166667e-01
      vertex -7.083335e+01 -7.083333e+01 0.000000e+00
      vertex -7.083335e+01 7.083335e+01 0.000000e+00
    endloop
  endfacet
  facet normal 9.999999e-01 0.000000e+00 0.000000e+00
    outer loop
      vertex -7.083335e+01 7.083335e+01 0.000000e+00
      vertex -7.083335e+01 7.083335e+01 4.166667e-01
      vertex -7.083335e+01 -7.083333e+01 4.166667e-01
    endloop
  endfacet
  facet normal 0.000000e+00 -9.999999e-01 0.000000e+00
    outer loop
      vertex -7.083335e+01 7.083335e+01 4.166667e-01
      vertex -7.083335e+01 7.083335e+01 0.000000e+00
      vertex 7.083333e+01 7.083335e+01 0.000000e+00
    endloop
  endfacet
  facet normal 0.000000e+00 -9.999999e-01 0.000000e+00
    outer loop
      vertex 7.083333e+01 7.083335e+01 0.000000e+00
      vertex 7.083333e+01 7.083335e+01 4.166667e-01
      vertex -7.083335e+01 7.083335e+01 4.166667e-01
    endloop
  endfacet
  facet normal -9.999999e-01 0.000000e+00 0.000000e+00
    outer loop
      vertex 7.083333e+01 7.083335e+01 4.166667e-01
      vertex 7.083333e+01 7.083335e+01 0.000000e+00
      vertex 7.083333e+01 -7.083333e+01 0.000000e+00
    endloop
  endfacet
  facet normal -9.999999e-01 0.000000e+00 0.000000e+00
    outer loop
      vertex 7.083333e+01 -7.083333e+01 0.000000e+00
      vertex 7.083333e+01 -7.083333e+01 4.166667e-01
      vertex 7.083333e+01 7.083335e+01 4.166667e-01
    endloop
  endfacet
  facet normal 0.000000e+00 9.999999e-01 0.000000e+00
    outer loop
      vertex -7.083335e+01 -7.083333e+01 0.000000e+00
      vertex -7.083335e+01 -7.083333e+01 4.166667e-01
      vertex 7.083333e+01 -7.083333e+01 4.166667e-01
    endloop
  endfacet
  facet normal 0.000000e+00 9.999999e-01 0.000000e+00
    outer loop
      vertex 7.083333e+01 -7.083333e+01 4.166667e-01
      vertex 7.083333e+01 -7.083333e+01 0.000000e+00
      vertex -7.083335e+01 -7.083333e+01 0.000000e+00
    endloop
  endfacet
endsolid Default
